# xmcd
#
# Track frame offsets: 
#        150
#        17980
#        40395
#        58122
#        70632
#        91165
#        114405
#        136065
#        156217
#        182265
#        204762
#        221130
#
# Disc length: 3240 seconds
#
# Revision: 9
# Processed by: cddbd v1.5.2PL0 Copyright (c) Steve Scherf et al.
# Submitted via: ExactAudioCopy v1.1
#
DISCID=9c0ca60c
DTITLE=Gordon Haskell - Harry's Bar
DYEAR=2002
DGENRE=Jazz
TTITLE0=How Wonderful You Are
TTITLE1=All The Time In The World
TTITLE2=Voodoo Dance
TTITLE3=Freeway To Her Dreams
TTITLE4=Sunshine In The Night
TTITLE5=Al Capone
TTITLE6=Feelin' Loose
TTITLE7=There Goes My Heart Again
TTITLE8=Roll With It
TTITLE9=Someone I Knew
TTITLE10=A Little Help From You
TTITLE11=All In The Scheme Of Things
EXTD=YEAR: 2002
EXTT0=
EXTT1=
EXTT2=
EXTT3=
EXTT4=
EXTT5=
EXTT6=
EXTT7=
EXTT8=
EXTT9=
EXTT10=
EXTT11=
PLAYORDER=
